<svg xmlns="http://www.w3.org/2000/svg" viewBox="0 0 218.08 357.21"><defs><style>.cls-1,.cls-3{fill:#594a42;}.cls-1,.cls-2,.cls-3,.cls-4,.cls-5,.cls-6,.cls-7,.cls-8,.cls-9{stroke:#231f20;stroke-miterlimit:10;}.cls-1,.cls-2,.cls-7,.cls-8,.cls-9{stroke-width:0.64px;}.cls-2{fill:#3b3029;}.cls-4,.cls-5,.cls-6{fill:#231f20;}.cls-5{stroke-width:1.15px;}.cls-6{stroke-width:1.16px;}.cls-7{fill:#00a14b;}.cls-8{fill:#2bb673;}.cls-9{fill:#006838;}</style></defs><title>no_hands</title><g id="Warstwa_2" data-name="Warstwa 2"><g id="Warstwa_9" data-name="Warstwa 9"><path class="cls-1" d="M67.54,165.19s-23.61-19.86-22.4-26.51S50.47,114,56.32,112.07s20.44-5.48,21.25-7.43S80.82,92.9,80.82,92.9l4.05-2s4.05,11.74-.81,16.82-18.24,5.09-22.7,8.22-10.13,18-8.51,21.13l22,25.49Z"/><path class="cls-1" d="M96.1,158.86s11.19-32.81,0-36-16.15-16.47-16.15-16.47-4.63-1.79-3.32-1.79,1.56-5.23,1.56-5.23,8.36,4.05,9.35,7.49,11.84,11.72,11.84,11.72,12.17,8.86,12.83,14-5.86,27.59-5.86,27.59Z"/><path class="cls-1" d="M82.24,160.83s-7.75-10.37-9.47-17.66.86-17.41.86-17.41l6.43-16.19,5.6-5.31,3.5,5.17-7.82,9.45s-4.23,17.81-1.9,21,8.76,20.29,8.76,20.29Z"/><circle class="cls-2" cx="89.54" cy="105.12" r="5.3"/><circle class="cls-2" cx="83.73" cy="110.63" r="5.3"/><circle class="cls-2" cx="76.84" cy="102.49" r="5.3"/><path class="cls-3" d="M66.88,163.23s-.86,1.71-2.14,1.93a19.89,19.89,0,0,1-2.79.21l-3.64-2.89s-17.89-7.61-20.78-7.61,23.78,7.07,20.89,11.57-18,4.82-18,4.82,13.5-1.61,12.53.64-4.5,26.35-4.5,26.35l-6.11,8.36L44.6,214,32.71,254.5s-3.54,19,1.29,29.25,7.39,12.53,19,20.89c0,0,5.78,3.54,8.36,3.21,0,0,9,2.25,9.32,6.43s2.25,5.46,2.89,8.36-.64,10-3.54,13.18-7.79,12.59-6,12.26,14.38-13.23,16.14-13.87-6.7,19.82-3.48,17,11.52-12.37,11.52-16.39-3.7-12.53-5.78-15.91.32-8,.16-18c0,0,6.11-.8,8.2-.32s15.05-2.95,15.27.7-6,9-6,9-3.86,6.43-4.93,9-.21,6-1.29,8.57-.64,13.71.43,14.78,1.5-11.89,1.5-11.89a8.71,8.71,0,0,0,.75,3.54c.86,2.14,3.86,3.43,4.82,4.93s6.91,19.88,6.91,17.21c0-2.12-3.8-24-2.3-24.07s2.19.06,3.63,2.07,3.29,13.42,4.33,13.5-.71-13.67-1.51-15.43-5.78-2.81-7.07-5.38,15.51-20.25,15.51-20.25a23.09,23.09,0,0,0,4.29-2.57c1.5-1.29,9.48-4.51,13.28-7.5a36.81,36.81,0,0,0,7.28-6.64c7.12-9-.27-47.08.05-47.88s-15.59-41.3-15.75-44.67-3.37-7.87-3.54-13.18-12.37-17.84-13-20.09,2.41-7.39,3.37-8.36,1.29-1.29,3.86-1.12a66.08,66.08,0,0,0,7.55-.32s-1.12,0,2.09,1.93a56.74,56.74,0,0,0,5.78,3.05s-6.11-5.3-8.36-7.07-13,1.61-13,1.61l-3.7,6.75s-4.66-2.73-12.69-2.09S66.88,163.23,66.88,163.23Z"/><path class="cls-4" d="M95.2,209.31c0,2.13-1,5.54-2.11,6.1-2.77,1.35-3.83,3.68-6.57,3.68-2.19,0-4.69-.52-5.62-3-.41-1.1-1.5-1.65-1.34-3.06s-1-2.78-1-4.2a23.34,23.34,0,0,1,1-4.94c.75-3.62,4.37-2.84,7-4.24,1.64-.87,6,.11,6.59,1.88C93.93,203.79,95.2,206.42,95.2,209.31Z"/><path class="cls-5" d="M62.32,190.14a113.71,113.71,0,0,0,11.74-2.32c2.36-.61,3.11-5.75,3.11-5.75"/><path class="cls-6" d="M107.54,187.89c-4.77-.64-11-1-12.7-1.41-2.36-.62-2.46-5.77-2.46-5.77"/><path class="cls-7" d="M81.55,153.41s0,3.54,7.07,9.32,16.71,8.36,16.71,8.36l.87-14.46s-1.19-15.75-9.87-17-11.78,2.25-11.78,2.25l-2.09,2.25-4.77,7.07L75,161.9l5.35-.79Z"/><path class="cls-8" d="M86.37,98.31s3.7-3.7,7.07-3.54,10.28,5.78,11.25,8l12.86.32s-5-10.77-5.62-10.77-13.5-.32-15.59.32l-3.7,1.12s-3.7,1.12-4.66,1.93,2.41-5.78,3.86-6.11a20.31,20.31,0,0,1,6.27.32c1.29.32,7.07-.45,7.07-.45l10.12-6.29a70.8,70.8,0,0,0,3.86-8.2c.8-2.57-3.86-1.77-8-1.45s-12.37-.16-15.75,3.7A20.87,20.87,0,0,0,91,84.65v3.51l-4.66,7.42Z"/><path class="cls-9" d="M108.1,153.88c1.1-1.57,11.15-6.07,11.15-6.07s9.73-1.68,13.49,0,14.7,1.29,18.56.32c0,0-2.89-11.25-8-12.86s-14.79-.3-16.5.64c-4.07,2.25-8.57,7.93-8.57,7.93l-2.57,3-7.07,3.86Z"/><path class="cls-8" d="M58,112.36S40.1,88.13,36.88,89.1s-7.71,10.39-13.82,11.14-22.5-6-22.5-6S13.1,81.7,19.21,82s17,3.21,17,3.21S56.81,105.81,58.42,109,58,112.36,58,112.36Z"/><path class="cls-9" d="M66.33,109.1s-6-30.39-1.71-41.53,12.21-24,12.21-24-1.93-1.71-1.07-12S90.34,9.29,90.34,9.29L98.48.72l2.57,23.14S95.91,39.29,87.77,42.29,79,43.79,79,43.79,67,65.21,66.77,69.71,64,74.42,64.84,81.49s3.24,27.09,3.24,27.09Z"/><path class="cls-7" d="M105.88,124s17.88-15.3,32-17.44h0A129.46,129.46,0,0,1,164,105.33s11.14-9.48,22.28-12.05,31.28,12.86,31.28,12.86-6.86,7.28-24.85,11.14a27,27,0,0,1-27.42-9.48s-12-1.65-20.14.7-15.85,1.06-33.85,14.56l-3.24,2.79Z"/><path class="cls-9" d="M36.76,128.79s-17.14-3.37-23.57,4.49S5,152.68,5,152.68s17.14.89,23.14-5.54,9.43-15.43,9.43-15.43l5.14-1.18,5,2.74,22.21,29.44,6.2-1S48.33,127.43,44.9,128.07A59.25,59.25,0,0,1,36.76,128.79Z"/></g></g></svg>