<svg xmlns="http://www.w3.org/2000/svg" viewBox="0 0 224.49 215.4"><defs><style>.cls-1{fill:#3b3029;stroke:#231f20;stroke-miterlimit:10;}</style></defs><title>pot</title><g id="Warstwa_2" data-name="Warstwa 2"><g id="Warstwa_8" data-name="Warstwa 8"><path class="cls-1" d="M185.78,214.9H38.7a10.29,10.29,0,0,1-10.26-9.58L16.49,32.84a10.29,10.29,0,0,1,10.26-11h171a10.29,10.29,0,0,1,10.26,11L196,205.32A10.29,10.29,0,0,1,185.78,214.9Z"/><path class="cls-1" d="M217.58,39.69H6.9A2.89,2.89,0,0,1,4,37.1L.52,3.69A2.89,2.89,0,0,1,3.39.5H221.1A2.89,2.89,0,0,1,224,3.69L220.45,37.1A2.89,2.89,0,0,1,217.58,39.69Z"/></g></g></svg>